<svg width="256" height="256" viewBox="0 0 256 256" fill="none" xmlns="http://www.w3.org/2000/svg">
<path d="M224 25H32C23.1634 25 16 32.1634 16 41V216C16 224.837 23.1634 232 32 232H224C232.837 232 240 224.837 240 216V41C240 32.1634 232.837 25 224 25Z" fill="#245C63"/>
<path d="M223 26H33C24.1634 26 17 33.1634 17 42V209C17 217.837 24.1634 225 33 225H223C231.837 225 239 217.837 239 209V42C239 33.1634 231.837 26 223 26Z" fill="#48B9C7"/>
<path d="M174.976 135H81C77.6863 135 75 137.686 75 141V208C75 211.314 77.6863 214 81 214H174.976C178.29 214 180.976 211.314 180.976 208V141C180.976 137.686 178.29 135 174.976 135Z" fill="#3A95A0"/>
<path d="M175 135H81C77.6863 135 75 137.686 75 141V206.096C75 209.41 77.6863 212.096 81 212.096H175C178.314 212.096 181 209.41 181 206.096V141C181 137.686 178.314 135 175 135Z" fill="#EDEDED"/>
<path d="M75 141C75 137.686 77.6863 135 81 135H175C178.314 135 181 137.686 181 141V154.036H75V141Z" fill="#FFAD00"/>
<path d="M132 41H38C34.6863 41 32 43.6863 32 47V114C32 117.314 34.6863 120 38 120H132C135.314 120 138 117.314 138 114V47C138 43.6863 135.314 41 132 41Z" fill="#3A95A0"/>
<path d="M132 41H38C34.6863 41 32 43.6863 32 47V112C32 115.314 34.6863 118 38 118H132C135.314 118 138 115.314 138 112V47C138 43.6863 135.314 41 132 41Z" fill="#EDEDED"/>
<path d="M32 47C32 43.6863 34.6863 41 38 41H132C135.314 41 138 43.6863 138 47V60.0991H32V47Z" fill="#FFAD00"/>
<path d="M219 56H160C157.791 56 156 57.7909 156 60V102C156 104.209 157.791 106 160 106H219C221.209 106 223 104.209 223 102V60C223 57.7909 221.209 56 219 56Z" fill="#3A95A0"/>
<path d="M219 56H160C157.791 56 156 57.7909 156 60V100C156 102.209 157.791 104 160 104H219C221.209 104 223 102.209 223 100V60C223 57.7909 221.209 56 219 56Z" fill="#EDEDED"/>
<path d="M156 60C156 57.7909 157.791 56 160 56H219C221.209 56 223 57.7909 223 60V68H156V60Z" fill="#FFAD00"/>
</svg>
