<svg width="256" height="256" viewBox="0 0 256 256" fill="none" xmlns="http://www.w3.org/2000/svg">
<path d="M24 37C24 30.3726 29.3726 25 36 25H102C108.627 25 114 30.3726 114 37V106C114 112.627 108.627 118 102 118H36C29.3726 118 24 112.627 24 106V37Z" fill="#245C63"/>
<path d="M25 38C25 31.3726 30.3726 26 37 26H101C107.627 26 113 31.3726 113 38V102C113 108.627 107.627 114 101 114H37C30.3726 114 25 108.627 25 102V38Z" fill="#48B9C7"/>
<path d="M140 37C140 30.3726 145.373 25 152 25H218C224.627 25 230 30.3726 230 37V106C230 112.627 224.627 118 218 118H152C145.373 118 140 112.627 140 106V37Z" fill="#245C63"/>
<path d="M141 38C141 31.3726 146.373 26 153 26H217C223.627 26 229 31.3726 229 38V102C229 108.627 223.627 114 217 114H153C146.373 114 141 108.627 141 102V38Z" fill="#48B9C7"/>
<path d="M24 154C24 147.373 29.3726 142 36 142H102C108.627 142 114 147.373 114 154V220C114 226.627 108.627 232 102 232H36C29.3726 232 24 226.627 24 220V154Z" fill="#245C63"/>
<path d="M25 155C25 148.373 30.3726 143 37 143H101C107.627 143 113 148.373 113 155V216C113 222.627 107.627 228 101 228H37C30.3726 228 25 222.627 25 216V155Z" fill="#48B9C7"/>
<path fill-rule="evenodd" clip-rule="evenodd" d="M163.204 174.407C153.618 182.207 141.532 186.859 128.397 186.859C97.25 186.859 72 160.699 72 128.43C72 96.1599 97.25 70 128.397 70C159.545 70 184.795 96.1599 184.795 128.43C184.795 142.038 180.305 154.559 172.775 164.491L185.068 177.227L175.497 187.143L163.204 174.407ZM178.027 128.43C178.027 156.827 155.807 179.848 128.397 179.848C100.988 179.848 78.7677 156.827 78.7677 128.43C78.7677 100.032 100.988 77.0116 128.397 77.0116C155.807 77.0116 178.027 100.032 178.027 128.43Z" fill="#B5B5B5"/>
<path fill-rule="evenodd" clip-rule="evenodd" d="M163.164 170.731C153.582 178.257 141.502 182.745 128.373 182.745C97.2389 182.745 72 157.506 72 126.373C72 95.2389 97.2389 70 128.373 70C159.506 70 184.745 95.2389 184.745 126.373C184.745 139.502 180.257 151.582 172.731 161.164L185.019 173.452L175.452 183.019L163.164 170.731ZM173.471 126.373C173.471 151.28 153.28 171.471 128.373 171.471C103.466 171.471 83.2745 151.28 83.2745 126.373C83.2745 101.466 103.466 81.2745 128.373 81.2745C153.28 81.2745 173.471 101.466 173.471 126.373Z" fill="white"/>
<path d="M174 126.5C174 151.629 153.629 172 128.5 172C103.371 172 83 151.629 83 126.5C83 101.371 103.371 81 128.5 81C153.629 81 174 101.371 174 126.5Z" fill="#48B9C7"/>
<path d="M184.559 172.881C185.438 172.006 191.832 172.512 192.708 173.391L225.813 206.496C227.58 208.46 227.851 209.552 228.869 212.608C230.397 217.701 228.365 225.405 225.394 228.364C220.559 233.18 212.736 233.165 207.92 228.33L172.434 192.704C169.788 190.198 171.826 185.105 172.335 185.105L184.559 172.881Z" fill="#A46F00"/>
<path d="M186.813 170.481C187.692 169.606 189.114 169.608 189.99 170.487L225.475 206.113C230.291 210.948 230.276 218.772 225.441 223.588C220.606 228.403 212.783 228.388 207.967 223.553L172.481 187.927C171.606 187.048 171.608 185.626 172.487 184.75L186.813 170.481Z" fill="#FFAD00"/>
<path d="M125.607 87.4985C126.48 87.2653 127.652 87.9557 128.108 88.9997C128.737 90.4427 128.032 92.0174 126.531 92.5173C125.87 92.7376 122.403 93.7562 118 96.0192C116.424 96.8291 114.729 97.9181 113 99.0192C108.594 101.825 104.035 106.396 101.5 110.519C99.1275 114.378 97.6671 117.881 96.5 123C95.8861 125.692 95.5 130.5 95.5 131C95.5 133 94.6324 133.978 93.1075 133.999C91.5688 134.021 90.5 133 90.5 131C90.5 129.297 90.2524 124.032 91.5 119C92.4498 115.169 94.4529 110.901 96.9999 107.019C100.974 100.963 106.745 95.778 114 91.983C117.502 90.1509 121.375 88.6382 125.607 87.4985Z" fill="white"/>
</svg>
