<svg width="256" height="256" viewBox="0 0 256 256" fill="none" xmlns="http://www.w3.org/2000/svg">
<path d="M72 25H31C26.0294 25 22 29.0294 22 34V75C22 79.9706 26.0294 84 31 84H72C76.9706 84 81 79.9706 81 75V34C81 29.0294 76.9706 25 72 25Z" fill="#245C63"/>
<path d="M72 99H31C26.0294 99 22 103.029 22 108V149C22 153.971 26.0294 158 31 158H72C76.9706 158 81 153.971 81 149V108C81 103.029 76.9706 99 72 99Z" fill="#A38C0D"/>
<path d="M72 173H31C26.0294 173 22 177.029 22 182V223C22 227.971 26.0294 232 31 232H72C76.9706 232 81 227.971 81 223V182C81 177.029 76.9706 173 72 173Z" fill="#48B9C7"/>
<path d="M149 25H108C103.029 25 99 29.0294 99 34V75C99 79.9706 103.029 84 108 84H149C153.971 84 158 79.9706 158 75V34C158 29.0294 153.971 25 149 25Z" fill="#A38C0D"/>
<path d="M149 99H108C103.029 99 99 103.029 99 108V149C99 153.971 103.029 158 108 158H149C153.971 158 158 153.971 158 149V108C158 103.029 153.971 99 149 99Z" fill="#48B9C7"/>
<path d="M149 173H108C103.029 173 99 177.029 99 182V223C99 227.971 103.029 232 108 232H149C153.971 232 158 227.971 158 223V182C158 177.029 153.971 173 149 173Z" fill="#245C63"/>
<path d="M225 25H184C179.029 25 175 29.0294 175 34V75C175 79.9706 179.029 84 184 84H225C229.971 84 234 79.9706 234 75V34C234 29.0294 229.971 25 225 25Z" fill="#245C63"/>
<path d="M225 173H184C179.029 173 175 177.029 175 182V223C175 227.971 179.029 232 184 232H225C229.971 232 234 227.971 234 223V182C234 177.029 229.971 173 225 173Z" fill="#A38C0D"/>
<path d="M71 26H32C27.0294 26 23 30.0294 23 35V71C23 75.9706 27.0294 80 32 80H71C75.9706 80 80 75.9706 80 71V35C80 30.0294 75.9706 26 71 26Z" fill="#48B9C7"/>
<path d="M71 100H32C27.0294 100 23 104.029 23 109V145C23 149.971 27.0294 154 32 154H71C75.9706 154 80 149.971 80 145V109C80 104.029 75.9706 100 71 100Z" fill="#F7E062"/>
<path d="M71 174H32C27.0294 174 23 178.029 23 183V219C23 223.971 27.0294 228 32 228H71C75.9706 228 80 223.971 80 219V183C80 178.029 75.9706 174 71 174Z" fill="#94EBEB"/>
<path d="M148 26H109C104.029 26 100 30.0294 100 35V71C100 75.9706 104.029 80 109 80H148C152.971 80 157 75.9706 157 71V35C157 30.0294 152.971 26 148 26Z" fill="#F7E062"/>
<path d="M148 100H109C104.029 100 100 104.029 100 109V145C100 149.971 104.029 154 109 154H148C152.971 154 157 149.971 157 145V109C157 104.029 152.971 100 148 100Z" fill="#94EBEB"/>
<path d="M148 174H109C104.029 174 100 178.029 100 183V219C100 223.971 104.029 228 109 228H148C152.971 228 157 223.971 157 219V183C157 178.029 152.971 174 148 174Z" fill="#48B9C7"/>
<path d="M224 26H185C180.029 26 176 30.0294 176 35V71C176 75.9706 180.029 80 185 80H224C228.971 80 233 75.9706 233 71V35C233 30.0294 228.971 26 224 26Z" fill="#48B9C7"/>
<path d="M224 174H185C180.029 174 176 178.029 176 183V219C176 223.971 180.029 228 185 228H224C228.971 228 233 223.971 233 219V183C233 178.029 228.971 174 224 174Z" fill="#F7E062"/>
<path d="M225 99H184C179.029 99 175 103.029 175 108V149C175 153.971 179.029 158 184 158H225C229.971 158 234 153.971 234 149V108C234 103.029 229.971 99 225 99Z" fill="#966800"/>
<path d="M224 100H185C180.029 100 176 104.029 176 109V145C176 149.971 180.029 154 185 154H224C228.971 154 233 149.971 233 145V109C233 104.029 228.971 100 224 100Z" fill="#FFAD00"/>
</svg>
